<?xml version="1.0" encoding="iso-8859-1"?>
<!-- Generator: Adobe Illustrator 16.0.0, SVG Export Plug-In . SVG Version: 6.00 Build 0)  -->
<!DOCTYPE svg PUBLIC "-//W3C//DTD SVG 1.1//EN" "http://www.w3.org/Graphics/SVG/1.1/DTD/svg11.dtd">
<svg version="1.1" id="Capa_1" xmlns="http://www.w3.org/2000/svg" xmlns:xlink="http://www.w3.org/1999/xlink" x="0px" y="0px"
	width="36px" 
    height="36px"  viewBox="0 0 512.5 512.5" style="enable-background:new 0 0 512.5 512.5;" xml:space="preserve"
	>
<g>
	<path d="M96,0.25H32c-17.594,0-32,14.406-32,32v448c0,17.594,14.406,32,32,32h64c17.594,0,32-14.406,32-32v-448
		C128,14.656,113.594,0.25,96,0.25z M32,320.25h64v32H32V320.25z M96.5,416.25h-64v-32h64V416.25z M96.5,96.25h-64v-64h64V96.25z
		 M288.5,0.25h-64c-17.594,0-32,14.406-32,32v448c0,17.594,14.406,32,32,32h64c17.594,0,32-14.406,32-32v-448
		C320.5,14.656,306.094,0.25,288.5,0.25z M224.5,320.25h64v32h-64V320.25z M289,416.25h-64v-32h64V416.25z M289,96.25h-64v-64h64
		V96.25z M480.5,0.25h-64c-17.594,0-32,14.406-32,32v448c0,17.594,14.406,32,32,32h64c17.594,0,32-14.406,32-32v-448
		C512.5,14.656,498.094,0.25,480.5,0.25z M416.5,320.25h64v32h-64V320.25z M481,416.25h-64v-32h64V416.25z M481,96.25h-64v-64h64
		V96.25z"/>
</g>
<g>
</g>
<g>
</g>
<g>
</g>
<g>
</g>
<g>
</g>
<g>
</g>
<g>
</g>
<g>
</g>
<g>
</g>
<g>
</g>
<g>
</g>
<g>
</g>
<g>
</g>
<g>
</g>
<g>
</g>
</svg>
