<?xml version="1.0" encoding="iso-8859-1"?>
<!-- Generator: Adobe Illustrator 19.0.0, SVG Export Plug-In . SVG Version: 6.00 Build 0)  -->
<svg version="1.1" id="Capa_1" xmlns="http://www.w3.org/2000/svg" xmlns:xlink="http://www.w3.org/1999/xlink" width="36px" 
    height="36px" x="0px" y="0px"
	 viewBox="0 0 504.101 504.101" style="enable-background:new 0 0 504.101 504.101;" xml:space="preserve">
<g>
	<path d="M486.326,197.912H280.315c-1.166,0-2.331-0.874-3.788-1.457c-30.304-10.781-59.443-29.43-60.026-39.046
		c0-1.748,3.497-8.45,21.563-16.9c38.755-18.357,59.443-39.92,61.774-64.105c2.622-27.973-20.106-45.165-22.728-46.913
		c-7.867-5.536-18.94-4.079-24.477,3.788c-5.536,7.867-4.079,18.649,3.788,24.477c0,0,9.616,7.576,8.742,15.735
		c-0.291,3.788-4.662,17.775-41.96,35.841c-28.556,13.695-42.543,30.013-41.377,49.827c0.874,15.444,11.073,30.304,24.477,39.046
		H18.357C8.742,198.203,0,206.945,0,216.561v244.766c0,9.616,8.742,16.609,18.357,16.609h468.26c9.616,0,17.483-6.993,17.483-16.609
		V216.561C503.81,206.654,495.942,197.912,486.326,197.912z M468.843,442.678H34.675V232.878h434.168V442.678z M69.642,337.778
		c0-9.616,7.867-17.483,17.483-17.483h34.967v-34.967c0-9.616,7.867-17.483,17.483-17.483c9.616,0,17.483,7.867,17.483,17.483
		v34.967h32.053c9.616,0,17.483,7.867,17.483,17.483c0,9.616-7.867,17.483-17.483,17.483h-32.053v32.053
		c0,9.616-7.867,17.483-17.483,17.483c-9.616,0-17.483-7.867-17.483-17.483v-32.053H87.125
		C77.509,355.261,69.642,347.394,69.642,337.778z M294.01,350.308c0-14.861,11.947-26.808,26.808-26.808
		s26.808,11.947,26.808,26.808c0,14.861-11.947,26.808-26.808,26.808C305.957,377.115,294.01,365.169,294.01,350.308z
		 M370.645,316.507c0-14.861,11.947-26.808,26.808-26.808c14.861,0,26.808,11.947,26.808,26.808
		c0,14.861-11.947,26.808-26.808,26.808C382.592,343.023,370.645,331.076,370.645,316.507z"/>
</g>
<g>
</g>
<g>
</g>
<g>
</g>
<g>
</g>
<g>
</g>
<g>
</g>
<g>
</g>
<g>
</g>
<g>
</g>
<g>
</g>
<g>
</g>
<g>
</g>
<g>
</g>
<g>
</g>
<g>
</g>
</svg>
