<?xml version="1.0" ?><svg width="36px" 
    height="36px"  viewBox="0 0 32 32" xmlns="http://www.w3.org/2000/svg"><g id="Whisky"><path d="M4,30.73H15.53A2.76,2.76,0,0,0,18.28,28V11.88a2.76,2.76,0,0,0-2.75-2.75h-1a.92.92,0,0,1-.92-.92V5.39h.15a.75.75,0,0,0,.75-.75V2a.76.76,0,0,0-.75-.75H5.82A.75.75,0,0,0,5.07,2V4.64a.74.74,0,0,0,.75.75H6V8.21A.93.93,0,0,1,5,9.13H4a2.75,2.75,0,0,0-2.75,2.75V28A2.75,2.75,0,0,0,4,30.73Zm12.78-5.84h-14V14.21h14Zm-1.25,4.34H4A1.25,1.25,0,0,1,2.75,28V26.39h14V28A1.25,1.25,0,0,1,15.53,29.23Zm-9-26.46H13V3.89H6.57ZM4,10.63H5A2.42,2.42,0,0,0,7.47,8.21V5.39h4.59V8.21a2.42,2.42,0,0,0,2.42,2.42h1a1.26,1.26,0,0,1,1.25,1.25v.83h-14v-.83A1.26,1.26,0,0,1,4,10.63Z"/><path d="M3.78,19.14,5.25,20.8,5,23a.74.74,0,0,0,1,.76l2-.88,2,.88a.74.74,0,0,0,1-.76L11,20.8l1.47-1.66a.7.7,0,0,0,.15-.72.75.75,0,0,0-.55-.51l-2.17-.47L8.77,15.52a.79.79,0,0,0-1.3,0L6.35,17.44l-2.17.47a.75.75,0,0,0-.55.51A.7.7,0,0,0,3.78,19.14ZM7,18.83a.73.73,0,0,0,.49-.35l.64-1.1.65,1.1a.72.72,0,0,0,.48.35l1.24.27-.84.95a.76.76,0,0,0-.19.57l.13,1.27-1.17-.51a.77.77,0,0,0-.3-.06.8.8,0,0,0-.3.06l-1.16.51.12-1.27a.76.76,0,0,0-.19-.57l-.84-.95Z"/><circle cx="15" cy="21.76" r="0.75"/><circle cx="15" cy="19.62" r="0.75"/><path d="M15,18.22a.75.75,0,0,0,.75-.75h0a.75.75,0,0,0-1.5,0h0A.74.74,0,0,0,15,18.22Z"/><path d="M30,10.91H20.63a.75.75,0,0,0-.75.75v7.05a5.43,5.43,0,0,0,4.68,5.38v5.14H23.42a.75.75,0,0,0,0,1.5h3.79a.75.75,0,0,0,0-1.5H26.06V24.09a5.43,5.43,0,0,0,4.69-5.38v-7A.76.76,0,0,0,30,10.91Zm-.75,1.5v2.82H21.38V12.41ZM25.32,22.65a3.94,3.94,0,0,1-3.94-3.94v-2h7.87v2A3.94,3.94,0,0,1,25.32,22.65Z"/></g></svg>